
<svg xmlns="http://www.w3.org/2000/svg" fill="currentColor">
     <defs>
          <symbol id="icon-logo" fill="currentColor" width="240" height="40" viewBox="0 0 240 40"><path d="M32.93 101.175q-7.59 0-13.88-3.82-6.22-3.83-9.88-10.29-3.65-6.46-3.65-14.39l.13-43.68q0-7.8 3.56-14.08 3.55-6.36 9.81-10.22Q25.27.825 32.93.825q7.79 0 13.88 3.76 6.15 3.76 9.81 10.15 3.65 6.4 3.65 14.26v6.42q0 .55-.54.55H44q-.54 0-.54-.55v-6.42q0-4.65-3.01-8-3.01-3.35-7.52-3.35-4.99 0-7.66 3.42-2.66 3.42-2.66 7.93v43.68q0 5.13 3 8.37 3.01 3.25 7.32 3.25 4.51 0 7.52-3.59t3.01-8.03v-6.5q0-.54.54-.54h15.86q.55 0 .55.54v6.5q0 7.86-3.69 14.35-3.76 6.43-9.91 10.29-6.16 3.86-13.88 3.86m45.04-1.36H62.11q-.54 0-.54-.69l.13-96.18q0-.54.69-.54h15.58q.69 0 .69.54l-.14 38.08h20.99V2.945q0-.54.54-.54h15.59q.68 0 .68.54l.28 96.18q0 .69-.69.69h-15.72q-.68 0-.68-.69v-41.15H78.52v41.15q0 .69-.55.69m57.62 0h-15.85q-.69 0-.69-.69l.14-96.18q0-.54.55-.54h15.72q.54 0 .54.54l.14 96.18q0 .69-.55.69m49.7 0h-45.26q-.54 0-.54-.69l.13-96.04q0-.68.69-.68h15.58q.69 0 .69.68l-.14 79.5h28.85q.68 0 .68.68v15.86q0 .69-.68.69m17.36 0h-15.86q-.69 0-.69-.69l.14-96.18q0-.54.55-.54h15.72q.55 0 .55.54l.13 96.18q0 .69-.54.69m47.7 0h-15.72q-.69 0-.69-.69l.28-96.18q0-.54.54-.54h26.94q12.85 0 20.33 7.82 7.49 7.83 7.49 21.3 0 9.84-3.9 17.15-3.96 7.25-10.25 11.22-6.29 3.96-13.67 3.96h-10.67v35.27q0 .69-.68.69m11.35-80.8-10.67.13v27.76h10.67q4.44 0 7.72-4.28 3.28-4.27 3.28-11.1 0-5.47-2.94-8.99-2.94-3.52-8.06-3.52"></path>
          </symbol>
     </defs>

     <symbol width="24" height="24" id="icon-search" viewBox="0 0 24 24" fill="currentColor"><path d="M10 2C5.58172 2 2 5.58172 2 10C2 14.4183 5.58172 18 10 18C11.8487 18 13.551 17.3729 14.9056 16.3199L20.2929 21.7071C20.6834 22.0976 21.3166 22.0976 21.7071 21.7071C22.0976 21.3166 22.0976 20.6834 21.7071 20.2929L16.3199 14.9056C17.3729 13.551 18 11.8487 18 10C18 5.58172 14.4183 2 10 2ZM4 10C4 6.68629 6.68629 4 10 4C13.3137 4 16 6.68629 16 10C16 13.3137 13.3137 16 10 16C6.68629 16 4 13.3137 4 10Z" fill="currentColor"/>
     </symbol>
     <symbol viewBox="0 0 24 24" id="icon-menu">
          <g>
               <rect height="2" rx="1" width="22" x="1" y="3"></rect>
               <rect height="2" rx="1" width="22" x="1" y="11"></rect>
               <rect height="2" rx="1" width="22" x="1" y="19"></rect>
          </g>
     </symbol>
</svg>